<?xml version="1.0" encoding="UTF-8"?>
<svg xmlns="http://www.w3.org/2000/svg" xmlns:xlink="http://www.w3.org/1999/xlink" width="293px" height="330px" viewBox="0 0 293 329" version="1.1">
<defs>
<clipPath id="clip1">
  <path d="M 58.601562 98.039062 L 234.402344 98.039062 L 234.402344 230.964844 L 58.601562 230.964844 Z M 58.601562 98.039062 "/>
</clipPath>
</defs>
<g id="surface1">
<path style=" stroke:none;fill-rule:nonzero;fill:rgb(45.882353%,35.686275%,70.588235%);fill-opacity:1;" d="M 19.191406 207.652344 L 22.605469 211.910156 L 20.898438 206.375 C 20.472656 203.820312 17.488281 206.800781 19.191406 207.652344 M 23.03125 205.097656 C 24.308594 207.226562 25.589844 209.355469 25.589844 211.484375 C 25.589844 214.464844 28.148438 215.742188 30.28125 216.59375 C 27.292969 213.1875 25.589844 203.820312 23.03125 205.097656 M 186.804688 24.609375 C 194.054688 24.609375 200.878906 23.757812 208.554688 25.460938 C 227.320312 30.144531 243.101562 39.507812 253.761719 52.703125 L 283.617188 100.382812 C 284.898438 112.300781 287.457031 125.496094 287.027344 139.96875 C 290.015625 139.96875 289.589844 135.714844 293 134.863281 C 289.589844 143.375 287.882812 154.019531 287.027344 166.363281 C 284.898438 159.550781 287.027344 149.335938 287.457031 143.800781 C 284.46875 148.484375 282.765625 145.078125 282.765625 142.949219 C 283.191406 139.542969 281.484375 139.96875 280.203125 138.691406 C 275.511719 134.4375 272.527344 129.753906 269.117188 122.515625 C 271.25 116.984375 271.675781 108.894531 264.851562 104.636719 C 262.71875 103.363281 260.160156 101.234375 258.882812 97.828125 C 257.175781 93.144531 254.1875 87.609375 255.042969 80.375 C 255.46875 78.246094 248.644531 85.058594 244.804688 82.078125 C 228.171875 70.585938 211.539062 57.386719 191.496094 46.320312 C 180.832031 46.320312 173.15625 42.488281 169.316406 37.804688 C 165.90625 33.550781 168.464844 28.015625 173.582031 27.589844 C 176.566406 27.589844 179.980469 26.738281 182.539062 28.441406 C 182.964844 26.738281 184.671875 24.609375 186.804688 24.609375 M 144.582031 14.820312 L 145.433594 15.246094 C 149.699219 16.097656 151.832031 22.054688 156.523438 19.925781 C 156.523438 22.90625 156.949219 25.886719 156.097656 28.015625 C 154.816406 31.421875 150.976562 31.421875 147.992188 31.421875 C 119.417969 29.71875 102.785156 41.636719 85.296875 51.851562 C 80.605469 54.832031 75.488281 56.960938 71.652344 60.792969 C 53.3125 77.820312 33.265625 93.570312 28.574219 125.070312 L 24.738281 159.976562 C 24.308594 163.808594 20.042969 167.640625 20.898438 172.320312 L 23.882812 193.179688 C 20.898438 190.199219 19.191406 194.03125 20.042969 195.734375 C 20.472656 197.011719 22.175781 201.269531 24.738281 197.4375 C 28.148438 203.824219 31.5625 216.167969 36.25 221.703125 C 50.753906 238.730469 69.519531 254.054688 84.871094 269.378906 C 88.710938 268.527344 91.695312 268.527344 92.546875 265.972656 C 93.828125 268.527344 91.269531 271.082031 89.136719 271.507812 C 95.960938 275.761719 103.636719 279.59375 113.875 280.445312 C 127.09375 281.296875 139.464844 283.425781 150.976562 286.40625 C 156.949219 284.703125 162.917969 283.851562 169.316406 283.425781 C 171.449219 283.425781 172.730469 280.019531 175.289062 279.167969 L 175.714844 274.910156 C 178.273438 278.742188 177.847656 273.636719 176.140625 271.082031 C 179.128906 273.636719 179.980469 275.761719 181.257812 277.464844 C 181.257812 276.1875 184.671875 271.507812 184.671875 277.039062 L 185.523438 271.507812 C 186.804688 270.65625 187.230469 276.1875 188.511719 272.355469 C 189.789062 268.527344 192.347656 271.503906 194.90625 270.230469 C 194.054688 271.929688 194.480469 275.335938 197.464844 273.207031 L 200.878906 270.230469 C 203.011719 275.335938 206.421875 273.207031 208.128906 272.355469 C 226.894531 260.4375 245.660156 246.390625 263.570312 232.34375 L 263.144531 237.878906 L 265.277344 231.066406 C 267.410156 233.195312 269.117188 231.492188 269.96875 230.214844 C 272.527344 225.957031 275.941406 221.703125 281.484375 217.871094 C 274.660156 236.175781 266.558594 250.648438 256.320312 262.566406 L 252.058594 267.675781 C 252.058594 270.65625 251.203125 274.488281 247.792969 274.910156 C 246.085938 275.335938 242.671875 274.058594 240.117188 276.613281 C 238.835938 278.316406 243.101562 281.722656 239.6875 279.167969 C 236.703125 277.039062 233.71875 279.167969 230.304688 280.019531 C 227.746094 280.871094 232.011719 283.425781 232.863281 285.128906 C 233.71875 286.832031 234.570312 288.53125 234.144531 290.664062 L 229.453125 285.554688 C 223.910156 288.535156 220.496094 294.066406 215.804688 298.324219 C 213.671875 300.027344 214.527344 303.007812 214.527344 305.5625 C 211.539062 305.5625 208.128906 304.707031 206.421875 306.414062 C 205.144531 308.113281 205.570312 310.667969 205.570312 313.222656 C 201.304688 312.796875 200.878906 306.414062 197.039062 307.6875 C 193.203125 308.539062 188.9375 308.964844 185.523438 311.09375 C 188.082031 316.203125 181.257812 313.222656 182.113281 314.074219 C 175.714844 310.242188 170.171875 307.261719 163.347656 309.816406 C 148.847656 305.132812 130.933594 307.261719 117.710938 308.964844 C 117.710938 306.839844 118.136719 304.710938 117.285156 304.285156 C 116.433594 306.414062 113.875 305.5625 114.300781 305.5625 C 106.195312 300.027344 98.09375 296.621094 89.5625 291.9375 C 81.886719 292.789062 74.636719 288.957031 72.503906 286.832031 C 66.53125 281.296875 59.707031 284.277344 54.164062 283 C 42.222656 280.019531 37.957031 267.675781 36.679688 259.160156 C 35.824219 254.90625 32.414062 253.203125 31.132812 253.628906 C 25.589844 235.75 17.058594 219.574219 10.234375 202.972656 C 8.53125 198.714844 8.957031 194.457031 8.957031 189.773438 C 11.089844 190.625 13.222656 190.199219 12.796875 187.222656 C 10.664062 173.171875 5.546875 162.53125 0 152.316406 C 2.984375 137.84375 3.410156 120.8125 10.234375 108.042969 C 16.207031 96.550781 27.296875 90.589844 34.972656 80.800781 C 37.53125 77.394531 37.53125 72.710938 40.089844 69.734375 C 48.621094 61.21875 57.152344 52.277344 66.53125 44.617188 C 70.796875 41.210938 75.914062 44.617188 82.3125 43.339844 C 84.445312 35.679688 92.976562 28.867188 101.078125 30.996094 C 104.488281 31.847656 111.3125 22.90625 113.445312 22.054688 C 116.859375 20.777344 115.152344 25.460938 115.152344 28.441406 C 123.257812 22.054688 134.34375 18.652344 144.582031 14.820312 "/>
<g clip-path="url(#clip1)" clip-rule="nonzero">
<path style=" stroke:none;fill-rule:nonzero;fill:rgb(45.882353%,35.686275%,70.588235%);fill-opacity:1;" d="M 215.421875 223.097656 C 210.59375 228.339844 205.050781 230.960938 198.789062 230.960938 C 192.507812 230.960938 186.46875 227.933594 180.679688 221.875 C 174.886719 215.839844 170.0625 207.203125 166.203125 195.964844 C 162.34375 184.726562 159.664062 174.667969 158.160156 165.785156 C 154.730469 172.632812 152.050781 177.847656 150.117188 181.421875 C 148.1875 185.015625 145.347656 189.597656 141.59375 195.164062 C 137.839844 200.726562 133.925781 205.757812 129.851562 210.253906 C 117.199219 223.84375 102.886719 230.640625 86.90625 230.640625 C 72.433594 230.640625 63.425781 226.734375 59.886719 218.921875 C 59.027344 217.101562 58.601562 214.984375 58.601562 212.566406 C 58.601562 210.167969 59.832031 207.578125 62.300781 204.792969 C 66.265625 200.40625 71.734375 198.210938 78.707031 198.210938 C 83.421875 198.210938 88.410156 199.121094 93.664062 200.941406 C 95.058594 201.476562 95.59375 202.066406 95.273438 202.707031 C 94.949219 203.351562 93.554688 203.1875 91.089844 202.226562 C 88.625 201.261719 85.644531 200.78125 82.148438 200.78125 C 78.671875 200.78125 75.679688 202.117188 73.171875 204.792969 C 70.640625 207.46875 69.375 210.253906 69.375 213.144531 C 69.375 214.425781 69.644531 215.816406 70.179688 217.316406 C 72.324219 222.882812 77.363281 225.664062 85.300781 225.664062 C 94.09375 225.664062 101.867188 223.042969 108.621094 217.796875 C 112.480469 214.800781 115.96875 211.75 119.078125 208.648438 C 122.1875 205.542969 125.511719 201.371094 129.046875 196.125 C 134.625 188.097656 139.375 180.628906 143.300781 173.714844 C 147.203125 166.824219 151.4375 159.277344 156.003906 151.078125 C 160.550781 142.902344 163.898438 136.941406 166.042969 133.195312 C 172.90625 121.53125 179.175781 112.59375 184.859375 106.386719 C 178.855469 105.851562 172.851562 105.582031 166.847656 105.582031 C 153.121094 105.582031 139.480469 106.996094 125.929688 109.820312 C 112.351562 112.667969 101.597656 117.355469 93.664062 123.882812 C 83.691406 132.125 78.707031 140.902344 78.707031 150.210938 C 78.707031 154.707031 80.3125 158.6875 83.53125 162.15625 C 86.746094 165.644531 91.089844 167.390625 96.558594 167.390625 C 103.207031 167.390625 108.730469 165.035156 113.125 160.324219 C 117.523438 155.617188 119.828125 151.871094 120.042969 149.089844 C 120.148438 147.695312 120.46875 147 121.007812 147 C 121.863281 147 122.238281 147.804688 122.132812 149.410156 C 121.382812 154.546875 119.289062 158.882812 115.859375 162.414062 C 109.855469 168.621094 102.671875 171.722656 94.308594 171.722656 C 87.980469 171.722656 82.492188 169.582031 77.835938 165.300781 C 73.160156 161.023438 70.824219 155.296875 70.824219 148.125 C 70.824219 137.53125 76.003906 128.027344 86.359375 119.613281 C 96.699219 111.222656 110.285156 105.796875 127.117188 103.335938 C 139.128906 101.625 150.195312 100.765625 160.316406 100.765625 C 170.460938 100.765625 179.820312 101.355469 188.398438 102.53125 C 191.1875 99.535156 193.117188 98.039062 194.191406 98.039062 C 194.832031 98.039062 195.15625 98.539062 195.15625 99.546875 C 195.15625 100.574219 194.886719 101.835938 194.351562 103.335938 C 202.285156 104.621094 207.59375 105.636719 210.273438 106.386719 C 226.359375 111.09375 234.398438 118.371094 234.398438 128.21875 C 234.398438 134.53125 230.484375 140.792969 222.660156 147 C 212.792969 154.601562 199.605469 159.738281 183.089844 162.414062 C 178.375 163.164062 173.441406 163.644531 168.292969 163.859375 C 171.726562 182.800781 177.675781 198.746094 186.148438 211.699219 C 189.042969 216.085938 191.703125 219.265625 194.125 221.234375 C 196.527344 223.222656 199.121094 224.21875 201.910156 224.21875 C 205.769531 224.21875 209.878906 222.078125 214.230469 217.796875 C 218.5625 213.515625 223.570312 205.703125 229.253906 194.359375 C 230.109375 192.753906 230.96875 191.953125 231.828125 191.953125 C 232.683594 191.953125 232.738281 192.753906 231.988281 194.359375 C 225.769531 208.273438 220.246094 217.851562 215.421875 223.097656 Z M 222.820312 125.8125 C 222.820312 124.953125 222.710938 124.097656 222.496094 123.242188 C 221.316406 117.25 216.546875 112.96875 208.183594 110.398438 C 205.609375 109.648438 200.355469 108.632812 192.421875 107.347656 C 190.488281 110.667969 185.773438 118.425781 178.265625 130.625 C 170.761719 142.828125 165.183594 152.511719 161.539062 159.683594 C 163.898438 159.253906 167.359375 158.847656 171.929688 158.464844 C 176.476562 158.101562 179.765625 157.8125 181.804688 157.597656 C 194.027344 156.097656 204.429688 151.335938 213.007812 143.308594 C 219.550781 137.316406 222.820312 131.484375 222.820312 125.8125 Z M 222.820312 125.8125 "/>
</g>
</g>
</svg>
